# xmcd
#
# Track frame offsets: 
#        150
#        20074
#        40198
#        62291
#        107618
#        125788
#        139546
#        162600
#
# Disc length: 2768 seconds
#
# Revision: 0
# Processed by: cddbd v1.5.2PL0 Copyright (c) Steve Scherf et al.
# Submitted via: ExactAudioCopy v0.99pb4
#
DISCID=6a0ace08
DTITLE=Hobo Blues Band - Vándor az úton - cd2
DYEAR=1987
DGENRE=Blues
TTITLE0=Országúti fogadó blues - Roadhouse Blues
TTITLE1=Lobbants lángra - Light My Fire
TTITLE2=Vándor az úton - Riders On the Storm
TTITLE3=Amerikai ima - An American Prayer
TTITLE4=Spanyol karaván - Spanish Caravan
TTITLE5=Öten egyért - Five to One
TTITLE6=A Napra várva - Waiting For the Sun
TTITLE7=A vég - The End
EXTD=
EXTT0=
EXTT1=
EXTT2=
EXTT3=
EXTT4=
EXTT5=
EXTT6=
EXTT7=
PLAYORDER=
